<svg xmlns="http://www.w3.org/2000/svg" xmlns:xlink="http://www.w3.org/1999/xlink" width="1553.963" height="480.368" viewBox="0 0 1553.963 480.368">
  <defs>
    <linearGradient id="linear-gradient" x1="0.5" x2="0.5" y2="1" gradientUnits="objectBoundingBox">
      <stop offset="0" stop-color="#facb69"/>
      <stop offset="1" stop-color="#fc6a42"/>
    </linearGradient>
    <linearGradient id="linear-gradient-2" x1="0.5" y1="-4.992" x2="0.5" y2="2.753" gradientUnits="objectBoundingBox">
      <stop offset="0" stop-color="#fac868"/>
      <stop offset="1" stop-color="#fc6e44"/>
    </linearGradient>
  </defs>
  <g id="beacon-logo" transform="translate(-485.544 -529.414)">
    <g id="Group_4767" data-name="Group 4767" transform="translate(485.544 529.414)">
      <path id="Exclusion_39" data-name="Exclusion 39" d="M253.132,480.1H97.286l45.647-101.9h97.289a20.717,20.717,0,0,0,4.61-.694,28.344,28.344,0,0,0,4.7-1.636,29.189,29.189,0,0,0,5.415-3.18A33.9,33.9,0,0,0,265.3,359.648c3.213-6.826,5.005-15.363,5.328-25.374.487-15.1-2.871-26.474-9.98-33.816a27.664,27.664,0,0,0-6.158-4.782,29.051,29.051,0,0,0-6.015-2.574,28.136,28.136,0,0,0-7.845-1.245c-.249,0-.389.006-.4.007H0V0H250.829c.02,0,2.07,0,5.594.227,3.251.207,8.459.651,14.8,1.589A192.783,192.783,0,0,1,292.25,6.127a168.372,168.372,0,0,1,24.284,8.4c19.292,8.433,34.915,20.038,46.436,34.495a102.972,102.972,0,0,1,9,13.3,106.782,106.782,0,0,1,7.207,15.517,118.8,118.8,0,0,1,5.046,17.9,141.4,141.4,0,0,1,2.514,20.453c.365,7.077.459,13.985.28,20.532-.172,6.263-.6,12.36-1.269,18.122-.638,5.492-1.514,10.829-2.6,15.862a134.528,134.528,0,0,1-3.731,13.753c-4.982,15.037-12.37,27.453-21.959,36.9a70.812,70.812,0,0,1-12.245,9.683,65.112,65.112,0,0,1-10.838,5.434,54.635,54.635,0,0,1-7.741,2.382,28.722,28.722,0,0,1-2.956.528h.008a73.693,73.693,0,0,1,8.858,3.1,99.6,99.6,0,0,1,9.187,4.366,96.122,96.122,0,0,1,10.667,6.681,80.029,80.029,0,0,1,20.718,21.621,72.3,72.3,0,0,1,7.52,15.6,76.155,76.155,0,0,1,2.5,9.138,82.984,82.984,0,0,1,1.444,10.086c1.025,12.537,1.991,25.8,2.121,37.862.064,5.929-.071,11.256-.412,16.285a139.363,139.363,0,0,1-1.813,15.124,112.352,112.352,0,0,1-9.079,28.578A158.2,158.2,0,0,1,356.943,437.2a76.643,76.643,0,0,1-6.431,7.287,85.7,85.7,0,0,1-7.2,6.413,104.519,104.519,0,0,1-16.065,10.425,153.588,153.588,0,0,1-34.188,12.812c-5.01,1.269-10.225,2.373-15.5,3.279-4.222.726-8.493,1.328-12.695,1.79C257.671,479.995,253.177,480.1,253.132,480.1ZM115.9,103.2v85.477h122.72a25.4,25.4,0,0,0,5-1.015,34.162,34.162,0,0,0,10.987-5.592,36.583,36.583,0,0,0,10.975-13.993c3.307-7.177,4.976-16,4.962-26.217-.047-35.15-22.744-38.944-32.5-38.944a29.757,29.757,0,0,0-4.385.285Z" transform="translate(0 0)" fill="url(#linear-gradient)"/>
      <path id="Path_3129" data-name="Path 3129" d="M13970.51,1733.736H14085.8v37.651l-13.368,24.282h-88.576l-13.344-24.282Z" transform="translate(-13970.51 -1418.362)" fill="url(#linear-gradient-2)"/>
      <path id="Path_3130" data-name="Path 3130" d="M14030.587,1964.715h70.936L14066.6,2045.2Z" transform="translate(-14008.606 -1564.831)" fill="#333"/>
    </g>
    <path id="Path_3134" data-name="Path 3134" d="M126.671-230.905q-43.353,0-69.071-23.513T30.78-324.224v-12.859q1.1-29.024,13.043-49.782a79.059,79.059,0,0,1,33.066-31.6Q98.014-429.3,126.3-429.3q32.331,0,53.456,12.859a81.74,81.74,0,0,1,31.78,34.9q10.655,22.044,10.655,50.333v8.818a8.952,8.952,0,0,1-2.572,6.613,8.952,8.952,0,0,1-6.613,2.572H95.442v2.572A57.979,57.979,0,0,0,99.3-291.159,31.64,31.64,0,0,0,109.587-277.2q6.8,5.144,16.717,5.144a28.271,28.271,0,0,0,12.308-2.388,32.4,32.4,0,0,0,8.266-5.511,64.615,64.615,0,0,0,5.144-5.327q3.307-4.041,5.327-4.96a16.578,16.578,0,0,1,6.429-.919h45.557a8.589,8.589,0,0,1,6.062,2.2,6.642,6.642,0,0,1,2.021,5.878q-.367,6.246-6.246,15.063t-17.084,17.451q-11.206,8.634-28.106,14.145T126.671-230.905ZM95.442-349.575h62.09v-.735q0-12.124-3.49-20.758a28.446,28.446,0,0,0-10.655-13.41,30.081,30.081,0,0,0-17.084-4.776,28.56,28.56,0,0,0-16.533,4.776,30,30,0,0,0-10.655,13.41q-3.674,8.634-3.674,20.758ZM326.9-230.905q-19.839,0-35.454-7.532a63.853,63.853,0,0,1-24.8-20.391,48.723,48.723,0,0,1-9.185-29.024q0-26.085,21.309-41.332t56.579-20.758l45.925-6.981v-5.144q0-13.226-5.511-20.207t-20.207-6.981q-10.287,0-16.717,4.041a28.324,28.324,0,0,0-10.1,11.022,10.558,10.558,0,0,1-9.185,4.776H278.406a8.076,8.076,0,0,1-6.246-2.388,6.9,6.9,0,0,1-1.837-5.695q0-6.613,4.96-15.247t15.247-17.084q10.287-8.45,26.453-13.961t39.312-5.511q23.513,0,40.414,5.511t27.555,15.431a59.876,59.876,0,0,1,15.614,23.33,84.677,84.677,0,0,1,4.96,29.576v111.689a8.812,8.812,0,0,1-2.755,6.429,8.812,8.812,0,0,1-6.429,2.755H393.034a8.641,8.641,0,0,1-6.613-2.755,9.127,9.127,0,0,1-2.572-6.429v-12.859a53.335,53.335,0,0,1-12.859,12.859,66.628,66.628,0,0,1-18.921,9.369A82.206,82.206,0,0,1,326.9-230.905Zm17.268-41.883a40.423,40.423,0,0,0,19.288-4.592,32.18,32.18,0,0,0,13.594-14.329q4.96-9.736,4.96-24.432v-5.144l-31.229,5.511q-17.268,2.939-25.167,9t-7.9,14.145a16.1,16.1,0,0,0,3.674,10.655,23.665,23.665,0,0,0,9.736,6.8A35.264,35.264,0,0,0,344.17-272.789Zm242.85,41.883q-27.187,0-48.129-9.92a79.314,79.314,0,0,1-33.25-28.841q-12.308-18.921-13.41-45.374-.367-5.878-.367-14.88t.367-14.88q1.1-26.82,13.226-45.741a77.865,77.865,0,0,1,33.249-28.841q21.125-9.92,48.313-9.92,25.35,0,43.537,7.164t29.392,17.819q11.206,10.655,16.9,21.86t6.062,19.656a7.451,7.451,0,0,1-2.572,6.429,9.428,9.428,0,0,1-6.613,2.755H627.066a9.5,9.5,0,0,1-6.246-1.837,16.921,16.921,0,0,1-4.041-5.511q-4.409-11.389-11.206-16.165t-17.451-4.776q-14.7,0-22.595,9.552t-8.634,29.392q-.367,14.7,0,26.085,1.1,20.207,8.818,29.392t22.411,9.185q11.389,0,18-4.96t10.654-15.982a16.923,16.923,0,0,1,4.041-5.511,9.5,9.5,0,0,1,6.246-1.837h46.659a9.783,9.783,0,0,1,6.613,2.572,7.416,7.416,0,0,1,2.572,6.613,49.236,49.236,0,0,1-3.674,14.329,74.425,74.425,0,0,1-10.287,17.635,78.324,78.324,0,0,1-18.186,16.9,100.389,100.389,0,0,1-27,12.675Q607.962-230.905,587.02-230.905Zm232.2,0q-30.861,0-51.987-9.92T734.9-269.3q-11.206-18.554-12.675-44.271-.367-7.348-.367-16.717t.367-16.349q1.47-26.085,13.226-44.455t32.882-28.29q21.125-9.92,50.885-9.92,30.127,0,51.252,9.92t32.882,28.29q11.757,18.37,13.226,44.455.367,6.981.367,16.349t-.367,16.717q-1.47,25.718-12.675,44.271t-32.331,28.473Q850.444-230.905,819.215-230.905Zm0-44.823q16.533,0,24.065-9.92t8.634-29.759q.367-5.511.367-14.7t-.367-14.7q-1.1-19.472-8.634-29.576t-24.065-10.1q-15.8,0-23.7,10.1T786.884-344.8q-.367,5.511-.367,14.7t.367,14.7q.735,19.839,8.634,29.759T819.215-275.728Zm156.144,41.149a8.641,8.641,0,0,1-6.613-2.755,9.127,9.127,0,0,1-2.572-6.429V-416.441a8.952,8.952,0,0,1,2.572-6.613,8.952,8.952,0,0,1,6.613-2.572h42.251a9.585,9.585,0,0,1,6.8,2.572,8.64,8.64,0,0,1,2.755,6.613v13.961q9.185-11.389,24.616-19.1t36.372-7.715q21.309,0,37.658,9.552t25.718,27.922q9.369,18.37,9.369,45.557v102.5a9.127,9.127,0,0,1-2.572,6.429,8.641,8.641,0,0,1-6.613,2.755h-46.292a8.812,8.812,0,0,1-6.429-2.755,8.812,8.812,0,0,1-2.755-6.429v-100.3q0-17.268-8.266-26.636t-24.432-9.369q-15.063,0-24.065,9.369t-9,26.636v100.3a8.812,8.812,0,0,1-2.755,6.429,8.812,8.812,0,0,1-6.43,2.755Z" transform="translate(878.612 1149.8)" fill="#1c1c1c"/>
    <g id="Icon_ionic-ios-school" data-name="Icon ionic-ios-school" transform="translate(1922.684 581.841)">
      <path id="Path_3131" data-name="Path 3131" d="M6.813,20.539V44.662a2.108,2.108,0,0,0,1.041,1.822L42.2,66.234a2.086,2.086,0,0,0,3.123-1.822V40a2.108,2.108,0,0,0-1.041-1.822L9.936,18.692A2.119,2.119,0,0,0,6.813,20.539Z" transform="translate(9.828 33.404)" fill="#1c1c1c"/>
      <path id="Path_3132" data-name="Path 3132" d="M22.011,66.417,56.386,46.667a2.076,2.076,0,0,0,1.041-1.822V20.463A2.09,2.09,0,0,0,54.3,18.642L19.955,38.392a2.076,2.076,0,0,0-1.041,1.822V64.622A2.059,2.059,0,0,0,22.011,66.417Z" transform="translate(42.51 33.22)" fill="#1c1c1c"/>
      <path id="Path_3133" data-name="Path 3133" d="M58.537,4.976,3.371,37.191a2.079,2.079,0,0,0,0,3.617L58.537,71.462a4.189,4.189,0,0,0,4.137,0l48.947-28.025c1.379-.807,1.822.208,1.822,1.822V85.175c0,1.769,1.015,2.6,2.862,2.6h0a2.565,2.565,0,0,0,2.6-2.6V40.47a2.108,2.108,0,0,0-1.041-1.822L62.674,4.976A4.189,4.189,0,0,0,58.537,4.976Z" transform="translate(-2.317 -4.43)" fill="#1c1c1c"/>
    </g>
    <path id="Path_3135" data-name="Path 3135" d="M20.953-54.375a20.212,20.212,0,0,1-6.6-1.018,11.522,11.522,0,0,1-4.873-3.115,11.329,11.329,0,0,1-2.622-5.305,19.672,19.672,0,0,1,.031-7.526q.493-2.714,1.049-5.213t1.234-5.213q2.036-8.574,7.186-12.8a19.7,19.7,0,0,1,12.923-4.226,19.6,19.6,0,0,1,6.631,1.049,11.757,11.757,0,0,1,4.873,3.208,11.333,11.333,0,0,1,2.622,5.305,19.825,19.825,0,0,1-.062,7.464q-.493,2.714-1.049,5.213t-1.172,5.213q-2.1,8.7-7.248,12.831A19.993,19.993,0,0,1,20.953-54.375Zm.247-5.243a13.7,13.7,0,0,0,8.574-2.838q3.7-2.838,5.243-9.191.679-2.776,1.141-4.966t.956-4.9q1.172-6.354-.956-9.191t-7.125-2.838a13.536,13.536,0,0,0-8.574,2.838q-3.64,2.838-5.182,9.191-.679,2.714-1.172,4.9t-.987,4.966q-1.11,6.354.987,9.191T21.2-59.618Zm40.775,5.243A11.782,11.782,0,0,1,55.1-56.133a7.888,7.888,0,0,1-3.208-4.9,17.488,17.488,0,0,1,.093-7.217l3.7-17.4a1.707,1.707,0,0,1,.617-1.018,1.715,1.715,0,0,1,1.11-.4h3.084a1.01,1.01,0,0,1,.894.4,1.283,1.283,0,0,1,.154,1.018L57.965-68.563a16.172,16.172,0,0,0-.463,5.089,4.145,4.145,0,0,0,1.6,3.084,7.411,7.411,0,0,0,4.349,1.018,10.876,10.876,0,0,0,7.032-2.437,11.42,11.42,0,0,0,3.948-6.755l3.64-17.087a1.707,1.707,0,0,1,.617-1.018,1.715,1.715,0,0,1,1.11-.4h3.023a1.08,1.08,0,0,1,.956.4,1.283,1.283,0,0,1,.154,1.018L77.7-56.411a1.842,1.842,0,0,1-.555,1.018,1.567,1.567,0,0,1-1.11.4H73.2a1.184,1.184,0,0,1-.956-.4,1.147,1.147,0,0,1-.216-1.018l.555-2.714a23.788,23.788,0,0,1-2.776,2.5,10.731,10.731,0,0,1-3.239,1.666A15.235,15.235,0,0,1,61.975-54.375Zm29.548-.617a1.184,1.184,0,0,1-.956-.4,1.148,1.148,0,0,1-.216-1.018l6.23-29.178a1.844,1.844,0,0,1,.617-1.049,1.643,1.643,0,0,1,1.11-.432h2.838a1.146,1.146,0,0,1,.956.432,1.228,1.228,0,0,1,.216,1.049l-.617,2.714a9.2,9.2,0,0,1,3.825-3.146,13.343,13.343,0,0,1,5.49-1.049h2.653a1.01,1.01,0,0,1,.894.4,1.283,1.283,0,0,1,.154,1.018l-.493,2.529a1.629,1.629,0,0,1-.586.987,1.769,1.769,0,0,1-1.141.37h-3.64a8.6,8.6,0,0,0-5.675,1.943,9.2,9.2,0,0,0-3.084,5.274L96.272-56.411a1.707,1.707,0,0,1-.617,1.018,1.715,1.715,0,0,1-1.11.4Zm54.593,0q-4.071,0-6.045-1.326a5.188,5.188,0,0,1-2.313-3.763,17.326,17.326,0,0,1,.339-5.768l3.454-16.285h-4.812a1.094,1.094,0,0,1-.925-.4,1.208,1.208,0,0,1-.185-1.018l.432-2.1a1.707,1.707,0,0,1,.617-1.018,1.715,1.715,0,0,1,1.11-.4H142.6l2.221-10.3a1.767,1.767,0,0,1,.586-1.018,1.6,1.6,0,0,1,1.08-.4h2.9a1.094,1.094,0,0,1,.925.4,1.208,1.208,0,0,1,.185,1.018l-2.159,10.3h7.649a1.094,1.094,0,0,1,.925.4,1.208,1.208,0,0,1,.185,1.018l-.432,2.1a1.707,1.707,0,0,1-.617,1.018,1.715,1.715,0,0,1-1.11.4h-7.649l-3.393,15.853a32.829,32.829,0,0,0-.493,3.331,2.587,2.587,0,0,0,.617,2.159,3.94,3.94,0,0,0,2.776.74h4.071a1.01,1.01,0,0,1,.894.4,1.283,1.283,0,0,1,.154,1.018l-.432,2.221a1.767,1.767,0,0,1-.586,1.018,1.6,1.6,0,0,1-1.08.4Zm26.834.617a11.782,11.782,0,0,1-6.878-1.758,7.888,7.888,0,0,1-3.208-4.9,17.489,17.489,0,0,1,.093-7.217l3.7-17.4a1.707,1.707,0,0,1,.617-1.018,1.715,1.715,0,0,1,1.11-.4h3.084a1.01,1.01,0,0,1,.894.4,1.283,1.283,0,0,1,.154,1.018l-3.578,17.087a16.172,16.172,0,0,0-.463,5.089,4.145,4.145,0,0,0,1.6,3.084,7.41,7.41,0,0,0,4.349,1.018,10.876,10.876,0,0,0,7.032-2.437,11.42,11.42,0,0,0,3.948-6.755l3.64-17.087a1.707,1.707,0,0,1,.617-1.018,1.715,1.715,0,0,1,1.11-.4H193.8a1.08,1.08,0,0,1,.956.4,1.283,1.283,0,0,1,.154,1.018l-6.23,29.239a1.842,1.842,0,0,1-.555,1.018,1.567,1.567,0,0,1-1.11.4h-2.838a1.184,1.184,0,0,1-.956-.4A1.148,1.148,0,0,1,183-56.411l.555-2.714a23.787,23.787,0,0,1-2.776,2.5,10.731,10.731,0,0,1-3.239,1.666A15.235,15.235,0,0,1,172.949-54.375Zm40.9-.617q-4.071,0-6.045-1.326a5.188,5.188,0,0,1-2.313-3.763,17.327,17.327,0,0,1,.339-5.768l3.454-16.285h-4.812a1.094,1.094,0,0,1-.925-.4,1.208,1.208,0,0,1-.185-1.018l.432-2.1a1.707,1.707,0,0,1,.617-1.018,1.715,1.715,0,0,1,1.11-.4h4.812l2.221-10.3a1.767,1.767,0,0,1,.586-1.018,1.6,1.6,0,0,1,1.08-.4h2.9a1.094,1.094,0,0,1,.925.4,1.208,1.208,0,0,1,.185,1.018l-2.159,10.3h7.649a1.094,1.094,0,0,1,.925.4,1.208,1.208,0,0,1,.185,1.018l-.432,2.1a1.707,1.707,0,0,1-.617,1.018,1.715,1.715,0,0,1-1.11.4h-7.649l-3.393,15.853a32.83,32.83,0,0,0-.493,3.331,2.587,2.587,0,0,0,.617,2.159,3.94,3.94,0,0,0,2.776.74H218.6a1.01,1.01,0,0,1,.894.4,1.283,1.283,0,0,1,.154,1.018l-.432,2.221a1.767,1.767,0,0,1-.586,1.018,1.6,1.6,0,0,1-1.08.4Zm27.636.617a13.9,13.9,0,0,1-7.4-1.789,9.43,9.43,0,0,1-4.04-4.966,14.277,14.277,0,0,1-.463-7.248,26.9,26.9,0,0,1,.493-2.683q.37-1.635.679-2.622a20.9,20.9,0,0,1,3.208-7.279,15.652,15.652,0,0,1,5.675-4.935,17.341,17.341,0,0,1,8.081-1.789,14.028,14.028,0,0,1,7.464,1.789,9.593,9.593,0,0,1,4.071,4.935,13.712,13.712,0,0,1,.432,7.279q-.185.987-.524,2.622t-.586,2.683a22.564,22.564,0,0,1-3.239,7.248,15.287,15.287,0,0,1-5.644,4.966A17.626,17.626,0,0,1,241.482-54.375Zm.247-4.75a10.461,10.461,0,0,0,6.847-2.437,12.957,12.957,0,0,0,4.133-7.125q.247-.925.555-2.344t.493-2.344q.8-4.688-.8-7.125t-5.49-2.437A10.377,10.377,0,0,0,240.68-80.5a12.957,12.957,0,0,0-4.133,7.125q-.247.925-.555,2.344t-.432,2.344q-.8,4.688.74,7.125T241.729-59.125Zm26.649,4.133a1.184,1.184,0,0,1-.956-.4,1.148,1.148,0,0,1-.216-1.018l6.23-29.178a1.844,1.844,0,0,1,.617-1.049,1.642,1.642,0,0,1,1.11-.432H278a1.146,1.146,0,0,1,.956.432,1.228,1.228,0,0,1,.216,1.049l-.617,2.714a9.2,9.2,0,0,1,3.825-3.146,13.343,13.343,0,0,1,5.49-1.049h2.653a1.011,1.011,0,0,1,.894.4,1.283,1.283,0,0,1,.154,1.018l-.493,2.529a1.629,1.629,0,0,1-.586.987,1.769,1.769,0,0,1-1.141.37h-3.639a8.6,8.6,0,0,0-5.675,1.943,9.2,9.2,0,0,0-3.084,5.274l-3.825,18.136a1.707,1.707,0,0,1-.617,1.018,1.715,1.715,0,0,1-1.11.4Zm50.028,0a1.526,1.526,0,0,1-1.172-.4,2.171,2.171,0,0,1-.493-1.141l-2.714-28.993a1.374,1.374,0,0,1,.339-1.08,1.506,1.506,0,0,1,1.2-.463H318.1a1.451,1.451,0,0,1,.987.278,1.2,1.2,0,0,1,.37.771l2.036,23.256L333.58-85.774a4.152,4.152,0,0,1,.679-.864,1.669,1.669,0,0,1,1.234-.432h2.282a1.19,1.19,0,0,1,1.08.432,2.163,2.163,0,0,1,.339.864l2.529,23.009L353.567-86.02a2.147,2.147,0,0,1,.493-.679,1.418,1.418,0,0,1,1.049-.37h3.084q.864,0,1.018.524a1.717,1.717,0,0,1-.154,1.2l-14.8,28.808a4.135,4.135,0,0,1-.925,1.141,2.093,2.093,0,0,1-1.357.4h-2.529a1.747,1.747,0,0,1-1.234-.4,1.936,1.936,0,0,1-.555-1.141L335-78.618,323.34-56.534a3.638,3.638,0,0,1-.987,1.141,2.363,2.363,0,0,1-1.419.4Zm46.018,0a1.184,1.184,0,0,1-.956-.4,1.148,1.148,0,0,1-.216-1.018l6.23-29.239a1.707,1.707,0,0,1,.617-1.018,1.715,1.715,0,0,1,1.11-.4h2.961a1.01,1.01,0,0,1,.894.4,1.283,1.283,0,0,1,.154,1.018L369.05-56.411a1.767,1.767,0,0,1-.586,1.018,1.6,1.6,0,0,1-1.08.4Zm7.587-38.061a1.094,1.094,0,0,1-.925-.4,1.383,1.383,0,0,1-.247-1.018l.8-3.331a1.916,1.916,0,0,1,.586-1.049,1.532,1.532,0,0,1,1.08-.432h3.825a1.215,1.215,0,0,1,1.018.432,1.228,1.228,0,0,1,.216,1.049l-.74,3.331a1.707,1.707,0,0,1-.617,1.018,1.715,1.715,0,0,1-1.11.4Zm10.857,38.061a1.184,1.184,0,0,1-.956-.4,1.148,1.148,0,0,1-.216-1.018l8.759-40.96a1.767,1.767,0,0,1,.586-1.018,1.6,1.6,0,0,1,1.079-.4h2.961a1.1,1.1,0,0,1,.925.4,1.208,1.208,0,0,1,.185,1.018l-8.7,40.96a1.767,1.767,0,0,1-.586,1.018,1.6,1.6,0,0,1-1.08.4Zm18.506,0a1.184,1.184,0,0,1-.956-.4,1.148,1.148,0,0,1-.216-1.018l8.759-40.96a1.767,1.767,0,0,1,.586-1.018,1.6,1.6,0,0,1,1.079-.4h2.961a1.1,1.1,0,0,1,.925.4,1.208,1.208,0,0,1,.185,1.018L406-56.411a1.767,1.767,0,0,1-.586,1.018,1.6,1.6,0,0,1-1.08.4Zm37.382,0a1.184,1.184,0,0,1-.956-.4,1.148,1.148,0,0,1-.216-1.018l6.23-29.239a1.707,1.707,0,0,1,.617-1.018,1.715,1.715,0,0,1,1.11-.4h2.776a1.094,1.094,0,0,1,.925.4,1.208,1.208,0,0,1,.185,1.018L449-83.491a18.82,18.82,0,0,1,2.5-2.221,10.083,10.083,0,0,1,2.9-1.45,12.21,12.21,0,0,1,3.732-.524,11.286,11.286,0,0,1,5.922,1.45,7.027,7.027,0,0,1,3.208,4.226,15.461,15.461,0,0,1,4.688-4.133,12.39,12.39,0,0,1,6.23-1.542,10.772,10.772,0,0,1,5.706,1.48,8.051,8.051,0,0,1,3.454,4.472,14.429,14.429,0,0,1,.093,7.495L483.6-56.411a1.767,1.767,0,0,1-.586,1.018,1.6,1.6,0,0,1-1.08.4h-2.9a1.1,1.1,0,0,1-.925-.4,1.208,1.208,0,0,1-.185-1.018l3.64-17.272a13.475,13.475,0,0,0,.308-5.428,3.983,3.983,0,0,0-1.82-2.776,6.486,6.486,0,0,0-3.3-.8,9.512,9.512,0,0,0-3.609.8,9.31,9.31,0,0,0-3.578,2.776,12.515,12.515,0,0,0-2.375,5.428l-3.7,17.272a1.767,1.767,0,0,1-.586,1.018,1.6,1.6,0,0,1-1.08.4h-2.9a1.184,1.184,0,0,1-.956-.4,1.147,1.147,0,0,1-.216-1.018l3.7-17.272a12.569,12.569,0,0,0,.247-5.428,4.217,4.217,0,0,0-1.851-2.776,6.191,6.191,0,0,0-3.208-.8,9.512,9.512,0,0,0-3.609.8,9.31,9.31,0,0,0-3.578,2.776,12.468,12.468,0,0,0-2.375,5.367l-3.7,17.334a1.767,1.767,0,0,1-.586,1.018,1.6,1.6,0,0,1-1.08.4Zm68.719.617a11.7,11.7,0,0,1-5.613-1.2,8.392,8.392,0,0,1-3.393-3.269,11.981,11.981,0,0,1-1.45-4.719,22.571,22.571,0,0,1,.154-5.613q.185-.987.37-1.851t.432-1.851a30.865,30.865,0,0,1,1.974-5.521,19.962,19.962,0,0,1,3.115-4.75,13.237,13.237,0,0,1,4.565-3.331,15.185,15.185,0,0,1,6.261-1.2,10.865,10.865,0,0,1,5.953,1.326,9.735,9.735,0,0,1,3.115,3.239l.493-2.529a1.767,1.767,0,0,1,.586-1.018,1.681,1.681,0,0,1,1.141-.4h2.776a1.184,1.184,0,0,1,.956.4,1.148,1.148,0,0,1,.216,1.018L522.9-56.411a1.767,1.767,0,0,1-.586,1.018,1.6,1.6,0,0,1-1.08.4h-2.838a1.094,1.094,0,0,1-.925-.4,1.208,1.208,0,0,1-.185-1.018L517.838-59a19.735,19.735,0,0,1-4.164,3.3A12.233,12.233,0,0,1,507.475-54.375Zm1.3-5a9.8,9.8,0,0,0,5.336-1.419,11.827,11.827,0,0,0,3.67-3.609,14.535,14.535,0,0,0,1.974-4.472q.247-.987.524-2.375t.463-2.375a10.261,10.261,0,0,0,.093-4.256,6.026,6.026,0,0,0-1.912-3.454,6.6,6.6,0,0,0-4.534-1.357,8.7,8.7,0,0,0-4.966,1.388,11.091,11.091,0,0,0-3.393,3.64,22.767,22.767,0,0,0-2.128,4.842q-.247.925-.432,1.789t-.308,1.789a21.7,21.7,0,0,0-.185,4.842,5.684,5.684,0,0,0,1.542,3.64A5.731,5.731,0,0,0,508.77-59.372Zm27.944,4.38a1.184,1.184,0,0,1-.956-.4,1.148,1.148,0,0,1-.216-1.018l8.759-40.96a1.767,1.767,0,0,1,.586-1.018,1.6,1.6,0,0,1,1.08-.4h2.9a1.184,1.184,0,0,1,.956.4,1.148,1.148,0,0,1,.216,1.018l-4.5,21.158,13.818-9.808a9.423,9.423,0,0,1,1.326-.833,3.427,3.427,0,0,1,1.388-.216h3.763a.931.931,0,0,1,1.049.864q.123.864-.987,1.6L549.113-72.511l12.646,15.36a1.177,1.177,0,0,1,.247,1.419,1.276,1.276,0,0,1-1.234.74h-3.084a2.038,2.038,0,0,1-1.357-.339q-.37-.339-.679-.586L544.178-69.8l-2.9,13.386a1.767,1.767,0,0,1-.586,1.018,1.6,1.6,0,0,1-1.08.4Zm45.833.617a12.594,12.594,0,0,1-7-1.789,9.182,9.182,0,0,1-3.794-5.089,17.548,17.548,0,0,1-.432-7.742q.123-.8.4-2.067t.524-2.066a23.537,23.537,0,0,1,3.67-7.68,16.8,16.8,0,0,1,5.953-5.089,16.757,16.757,0,0,1,7.711-1.789,12.352,12.352,0,0,1,7.4,1.974,9.589,9.589,0,0,1,3.64,5.613,19.177,19.177,0,0,1-.062,8.513l-.247,1.049a1.572,1.572,0,0,1-.648,1.049,1.938,1.938,0,0,1-1.141.37H577.242a1.89,1.89,0,0,1-.031.247,1.094,1.094,0,0,1-.093.308,12.87,12.87,0,0,0,.123,4.719,6.4,6.4,0,0,0,2.067,3.547,6.151,6.151,0,0,0,4.164,1.357,10.016,10.016,0,0,0,3.855-.679,11.234,11.234,0,0,0,2.683-1.511,12.083,12.083,0,0,0,1.481-1.326,4.759,4.759,0,0,1,1.079-.894,2.784,2.784,0,0,1,1.08-.154h2.961a1.108,1.108,0,0,1,.864.339,1.046,1.046,0,0,1,.185.956,6.145,6.145,0,0,1-1.419,2.252,15.024,15.024,0,0,1-3.208,2.622,19.66,19.66,0,0,1-4.688,2.128A19.275,19.275,0,0,1,582.547-54.375Zm-4.38-19h16.84l.062-.185a9.454,9.454,0,0,0,.154-4.935,6.2,6.2,0,0,0-2.252-3.424,6.948,6.948,0,0,0-4.318-1.265,9.018,9.018,0,0,0-4.75,1.265,11.247,11.247,0,0,0-3.547,3.424,15.274,15.274,0,0,0-2.128,4.935Zm48.856,30.1a.96.96,0,0,1-.987-.617,1.491,1.491,0,0,1,.308-1.419l7.587-11.844L627.887-85.4a1.57,1.57,0,0,1,.185-1.141,1.312,1.312,0,0,1,1.234-.524h2.714a1.451,1.451,0,0,1,.987.278,1.2,1.2,0,0,1,.37.771l4.75,22.516L652.561-86.02a2.321,2.321,0,0,1,.679-.74,1.866,1.866,0,0,1,1.11-.308h3.208a1.2,1.2,0,0,1,.956.493q.4.494-.093,1.3L631.958-44.32a3.472,3.472,0,0,1-.709.74,1.726,1.726,0,0,1-1.079.308Zm46.943-11.1a13.9,13.9,0,0,1-7.4-1.789,9.429,9.429,0,0,1-4.04-4.966,14.276,14.276,0,0,1-.463-7.248,26.88,26.88,0,0,1,.493-2.683q.37-1.635.679-2.622a20.9,20.9,0,0,1,3.208-7.279,15.653,15.653,0,0,1,5.675-4.935,17.341,17.341,0,0,1,8.081-1.789,14.028,14.028,0,0,1,7.464,1.789,9.594,9.594,0,0,1,4.071,4.935,13.712,13.712,0,0,1,.432,7.279q-.185.987-.524,2.622t-.586,2.683a22.566,22.566,0,0,1-3.238,7.248,15.287,15.287,0,0,1-5.644,4.966A17.626,17.626,0,0,1,673.966-54.375Zm.247-4.75a10.461,10.461,0,0,0,6.847-2.437,12.957,12.957,0,0,0,4.133-7.125q.247-.925.555-2.344t.493-2.344q.8-4.688-.8-7.125t-5.49-2.437a10.377,10.377,0,0,0-6.785,2.437,12.957,12.957,0,0,0-4.133,7.125q-.247.925-.555,2.344t-.432,2.344q-.8,4.688.74,7.125T674.213-59.125Zm37.69,4.75a11.782,11.782,0,0,1-6.878-1.758,7.888,7.888,0,0,1-3.208-4.9,17.487,17.487,0,0,1,.093-7.217l3.7-17.4a1.706,1.706,0,0,1,.617-1.018,1.715,1.715,0,0,1,1.11-.4h3.084a1.011,1.011,0,0,1,.894.4,1.283,1.283,0,0,1,.154,1.018l-3.578,17.087a16.168,16.168,0,0,0-.463,5.089,4.145,4.145,0,0,0,1.6,3.084,7.411,7.411,0,0,0,4.349,1.018,10.876,10.876,0,0,0,7.032-2.437,11.42,11.42,0,0,0,3.948-6.755L728-85.65a1.707,1.707,0,0,1,.617-1.018,1.715,1.715,0,0,1,1.11-.4h3.023a1.08,1.08,0,0,1,.956.4,1.283,1.283,0,0,1,.154,1.018l-6.23,29.239a1.843,1.843,0,0,1-.555,1.018,1.567,1.567,0,0,1-1.11.4h-2.838a1.184,1.184,0,0,1-.956-.4,1.148,1.148,0,0,1-.216-1.018l.555-2.714a23.786,23.786,0,0,1-2.776,2.5,10.731,10.731,0,0,1-3.239,1.666A15.235,15.235,0,0,1,711.9-54.375Zm29.548-.617a1.184,1.184,0,0,1-.956-.4,1.148,1.148,0,0,1-.216-1.018l6.23-29.178a1.844,1.844,0,0,1,.617-1.049,1.642,1.642,0,0,1,1.11-.432h2.838a1.146,1.146,0,0,1,.956.432,1.228,1.228,0,0,1,.216,1.049l-.617,2.714a9.2,9.2,0,0,1,3.825-3.146,13.344,13.344,0,0,1,5.49-1.049H763.6a1.01,1.01,0,0,1,.894.4,1.283,1.283,0,0,1,.154,1.018l-.494,2.529a1.629,1.629,0,0,1-.586.987,1.769,1.769,0,0,1-1.141.37h-3.64a8.6,8.6,0,0,0-5.675,1.943,9.2,9.2,0,0,0-3.084,5.274L746.2-56.411a1.707,1.707,0,0,1-.617,1.018,1.715,1.715,0,0,1-1.11.4Zm46.388,0a1.184,1.184,0,0,1-.956-.4,1.148,1.148,0,0,1-.216-1.018l5.49-25.723h-5.243a1.1,1.1,0,0,1-.925-.4,1.208,1.208,0,0,1-.185-1.018l.432-2.1a1.707,1.707,0,0,1,.617-1.018,1.715,1.715,0,0,1,1.11-.4h5.243l.679-3.084a16,16,0,0,1,2.252-5.521,10.747,10.747,0,0,1,4.071-3.67,12.779,12.779,0,0,1,5.953-1.3h4.195a1.1,1.1,0,0,1,.925.4,1.208,1.208,0,0,1,.185,1.018l-.432,2.1a1.707,1.707,0,0,1-.617,1.018,1.715,1.715,0,0,1-1.11.4H806.1a6.106,6.106,0,0,0-4.411,1.511,8.306,8.306,0,0,0-2.19,4.349l-.555,2.776h7.9a1.094,1.094,0,0,1,.925.4,1.208,1.208,0,0,1,.185,1.018l-.432,2.1a1.767,1.767,0,0,1-.586,1.018,1.681,1.681,0,0,1-1.141.4h-7.9L792.4-56.411a1.767,1.767,0,0,1-.586,1.018,1.6,1.6,0,0,1-1.08.4Zm34.915.617a11.782,11.782,0,0,1-6.878-1.758,7.888,7.888,0,0,1-3.208-4.9,17.488,17.488,0,0,1,.093-7.217l3.7-17.4a1.707,1.707,0,0,1,.617-1.018,1.715,1.715,0,0,1,1.11-.4h3.084a1.011,1.011,0,0,1,.894.4,1.283,1.283,0,0,1,.154,1.018l-3.578,17.087a16.17,16.17,0,0,0-.463,5.089,4.145,4.145,0,0,0,1.6,3.084,7.41,7.41,0,0,0,4.349,1.018,10.876,10.876,0,0,0,7.032-2.437,11.42,11.42,0,0,0,3.948-6.755l3.639-17.087a1.706,1.706,0,0,1,.617-1.018,1.715,1.715,0,0,1,1.11-.4H843.6a1.08,1.08,0,0,1,.956.4,1.283,1.283,0,0,1,.154,1.018l-6.23,29.239a1.843,1.843,0,0,1-.555,1.018,1.567,1.567,0,0,1-1.11.4h-2.838a1.184,1.184,0,0,1-.956-.4,1.148,1.148,0,0,1-.216-1.018l.555-2.714a23.786,23.786,0,0,1-2.776,2.5,10.731,10.731,0,0,1-3.239,1.666A15.235,15.235,0,0,1,822.754-54.375Zm40.9-.617q-4.071,0-6.045-1.326a5.188,5.188,0,0,1-2.313-3.763,17.327,17.327,0,0,1,.339-5.768l3.454-16.285h-4.812a1.094,1.094,0,0,1-.925-.4,1.208,1.208,0,0,1-.185-1.018l.432-2.1a1.707,1.707,0,0,1,.617-1.018,1.715,1.715,0,0,1,1.11-.4h4.812l2.221-10.3a1.766,1.766,0,0,1,.586-1.018,1.6,1.6,0,0,1,1.079-.4h2.9a1.094,1.094,0,0,1,.925.4,1.208,1.208,0,0,1,.185,1.018l-2.159,10.3h7.649a1.094,1.094,0,0,1,.925.4,1.208,1.208,0,0,1,.185,1.018l-.432,2.1a1.707,1.707,0,0,1-.617,1.018,1.715,1.715,0,0,1-1.11.4h-7.649l-3.393,15.853a32.818,32.818,0,0,0-.494,3.331,2.587,2.587,0,0,0,.617,2.159,3.94,3.94,0,0,0,2.776.74H868.4a1.01,1.01,0,0,1,.894.4,1.283,1.283,0,0,1,.154,1.018l-.432,2.221a1.767,1.767,0,0,1-.586,1.018,1.6,1.6,0,0,1-1.079.4Zm26.834.617a11.782,11.782,0,0,1-6.878-1.758,7.888,7.888,0,0,1-3.208-4.9,17.487,17.487,0,0,1,.093-7.217l3.7-17.4a1.707,1.707,0,0,1,.617-1.018,1.715,1.715,0,0,1,1.11-.4h3.084a1.01,1.01,0,0,1,.894.4,1.283,1.283,0,0,1,.154,1.018l-3.578,17.087a16.17,16.17,0,0,0-.463,5.089,4.145,4.145,0,0,0,1.6,3.084,7.411,7.411,0,0,0,4.349,1.018A10.876,10.876,0,0,0,899-61.808a11.42,11.42,0,0,0,3.948-6.755l3.639-17.087a1.707,1.707,0,0,1,.617-1.018,1.715,1.715,0,0,1,1.11-.4h3.023a1.08,1.08,0,0,1,.956.4,1.283,1.283,0,0,1,.154,1.018l-6.23,29.239a1.843,1.843,0,0,1-.555,1.018,1.567,1.567,0,0,1-1.11.4h-2.838a1.184,1.184,0,0,1-.956-.4,1.148,1.148,0,0,1-.216-1.018l.555-2.714a23.786,23.786,0,0,1-2.776,2.5,10.731,10.731,0,0,1-3.239,1.666A15.235,15.235,0,0,1,890.486-54.375Zm29.548-.617a1.184,1.184,0,0,1-.956-.4,1.148,1.148,0,0,1-.216-1.018l6.23-29.178a1.844,1.844,0,0,1,.617-1.049,1.643,1.643,0,0,1,1.11-.432h2.838a1.146,1.146,0,0,1,.956.432,1.228,1.228,0,0,1,.216,1.049l-.617,2.714a9.2,9.2,0,0,1,3.825-3.146,13.343,13.343,0,0,1,5.49-1.049h2.653a1.011,1.011,0,0,1,.894.4,1.283,1.283,0,0,1,.154,1.018l-.494,2.529a1.629,1.629,0,0,1-.586.987,1.769,1.769,0,0,1-1.141.37h-3.64a8.6,8.6,0,0,0-5.675,1.943,9.2,9.2,0,0,0-3.084,5.274l-3.824,18.136a1.707,1.707,0,0,1-.617,1.018,1.715,1.715,0,0,1-1.11.4Zm38.677.617a12.594,12.594,0,0,1-7-1.789,9.182,9.182,0,0,1-3.794-5.089,17.548,17.548,0,0,1-.432-7.742q.123-.8.4-2.067t.524-2.066a23.537,23.537,0,0,1,3.67-7.68,16.8,16.8,0,0,1,5.953-5.089,16.757,16.757,0,0,1,7.711-1.789,12.352,12.352,0,0,1,7.4,1.974,9.59,9.59,0,0,1,3.64,5.613,19.176,19.176,0,0,1-.062,8.513l-.247,1.049a1.572,1.572,0,0,1-.648,1.049,1.938,1.938,0,0,1-1.141.37H953.406a1.9,1.9,0,0,1-.031.247,1.1,1.1,0,0,1-.093.308,12.871,12.871,0,0,0,.123,4.719,6.4,6.4,0,0,0,2.066,3.547,6.151,6.151,0,0,0,4.164,1.357,10.016,10.016,0,0,0,3.855-.679,11.237,11.237,0,0,0,2.683-1.511,12.082,12.082,0,0,0,1.48-1.326,4.758,4.758,0,0,1,1.08-.894,2.783,2.783,0,0,1,1.079-.154h2.961a1.108,1.108,0,0,1,.864.339,1.046,1.046,0,0,1,.185.956,6.147,6.147,0,0,1-1.419,2.252,15.026,15.026,0,0,1-3.208,2.622,19.658,19.658,0,0,1-4.688,2.128A19.276,19.276,0,0,1,958.711-54.375Zm-4.38-19h16.84l.062-.185a9.453,9.453,0,0,0,.154-4.935,6.2,6.2,0,0,0-2.252-3.424,6.948,6.948,0,0,0-4.318-1.265,9.018,9.018,0,0,0-4.75,1.265,11.246,11.246,0,0,0-3.547,3.424,15.275,15.275,0,0,0-2.128,4.935Zm32.509,8.143a1.08,1.08,0,0,1-.956-.4,1.283,1.283,0,0,1-.154-1.018l6.415-30.1a1.767,1.767,0,0,1,.586-1.018,1.6,1.6,0,0,1,1.079-.4h2.838a1.184,1.184,0,0,1,.956.4,1.147,1.147,0,0,1,.216,1.018l-6.415,30.1a1.707,1.707,0,0,1-.617,1.018,1.716,1.716,0,0,1-1.11.4Zm-2.714,10.24a1.184,1.184,0,0,1-.956-.4,1.147,1.147,0,0,1-.216-1.018l.864-3.886a1.8,1.8,0,0,1,.586-1.08,1.681,1.681,0,0,1,1.141-.4h3.886a1.184,1.184,0,0,1,.956.4,1.249,1.249,0,0,1,.216,1.08l-.864,3.886a1.767,1.767,0,0,1-.586,1.018,1.682,1.682,0,0,1-1.141.4Z" transform="translate(928.513 1053.054)" fill="#9e9e9e"/>
  </g>
</svg>
